<svg width="24" height="48" viewBox="0 0 24 48" fill="none" xmlns="http://www.w3.org/2000/svg">
<path fill-rule="evenodd" clip-rule="evenodd" d="M12 22C17.5228 22 22 17.5228 22 12C22 6.47715 17.5228 2 12 2C6.47715 2 2 6.47715 2 12C2 17.5228 6.47715 22 12 22ZM12 20C16.4183 20 20 16.4183 20 12C20 7.58172 16.4183 4 12 4C7.58172 4 4 7.58172 4 12C4 16.4183 7.58172 20 12 20Z" fill="#080F26" fill-opacity="0.35"/>
<path d="M12.9999 15.5V10.5H10V12H11V15.5H10.0001V17H14.0001V15.5H12.9999Z" fill="#080F26" fill-opacity="0.35"/>
<path d="M13.0334 8.92363C13.2704 8.70605 13.3889 8.39709 13.3889 7.99674C13.3889 7.59639 13.2649 7.28851 13.0168 7.07311C12.7687 6.8577 12.4253 6.75 11.9867 6.75C11.5614 6.75 11.2258 6.85879 10.98 7.07637C10.7341 7.29395 10.6111 7.60074 10.6111 7.99674C10.6111 8.39274 10.7297 8.70061 10.9667 8.92037C11.2037 9.14012 11.5437 9.25 11.9867 9.25C12.4475 9.25 12.7964 9.14121 13.0334 8.92363Z" fill="#080F26" fill-opacity="0.35"/>
<path fill-rule="evenodd" clip-rule="evenodd" d="M12 46C17.5228 46 22 41.5228 22 36C22 30.4772 17.5228 26 12 26C6.47715 26 2 30.4772 2 36C2 41.5228 6.47715 46 12 46ZM12 44C16.4183 44 20 40.4183 20 36C20 31.5817 16.4183 28 12 28C7.58172 28 4 31.5817 4 36C4 40.4183 7.58172 44 12 44Z" fill="#ad1318"/>
<path d="M12.9999 39.5V34.5H10V36H11V39.5H10.0001V41H14.0001V39.5H12.9999Z" fill="#ad1318"/>
<path d="M13.0334 32.9236C13.2704 32.706 13.3889 32.3971 13.3889 31.9967C13.3889 31.5964 13.2649 31.2885 13.0168 31.0731C12.7687 30.8577 12.4253 30.75 11.9867 30.75C11.5614 30.75 11.2258 30.8588 10.98 31.0764C10.7341 31.294 10.6111 31.6007 10.6111 31.9967C10.6111 32.3927 10.7297 32.7006 10.9667 32.9204C11.2037 33.1401 11.5437 33.25 11.9867 33.25C12.4475 33.25 12.7964 33.1412 13.0334 32.9236Z" fill="#ad1318"/>
</svg>