<svg xmlns="http://www.w3.org/2000/svg" xmlns:xlink="http://www.w3.org/1999/xlink" width="24" height="25"><defs><path id="a" d="M0 0h23.953v24.437H0z"/></defs><g fill="none" fill-rule="evenodd"><mask id="b" fill="#fff"><use xlink:href="#a"/></mask><path fill="#FF020B" d="M14.923 16.279a3.34 3.34 0 0 1-1.712 1.098c-.297.08-.43.238-.415.545.014.301 0 .608 0 .91 0 .272-.139.416-.406.42-.327.01-.653.01-.98 0-.287-.004-.42-.168-.426-.445-.004-.222-.004-.445-.004-.663-.005-.49-.02-.51-.49-.584-.604-.094-1.193-.232-1.742-.5-.43-.207-.475-.316-.352-.771.094-.337.184-.678.292-1.01.124-.386.228-.435.584-.252a5.647 5.647 0 0 0 1.935.579c.436.054.866.01 1.272-.169.757-.331.876-1.207.237-1.732a3.117 3.117 0 0 0-.722-.425c-.663-.292-1.356-.515-1.98-.89C9 11.78 8.358 10.95 8.432 9.711c.084-1.395.876-2.266 2.153-2.732.53-.193.53-.183.534-.737v-.559c.01-.416.08-.49.495-.5.129-.005.257 0 .386 0 .88 0 .88 0 .886.881.005.624 0 .628.623.722.475.075.93.218 1.37.411.243.11.337.277.263.535-.109.38-.213.767-.336 1.143-.114.356-.228.41-.574.242a4.39 4.39 0 0 0-2.173-.43c-.198.01-.396.04-.579.118-.658.287-.767 1.015-.203 1.46.282.228.61.391.946.53.583.242 1.167.47 1.722.777 1.746.984 2.222 3.196.98 4.706m8.724-2.702l-.372-.505a1.59 1.59 0 0 1-.014-1.856l.36-.51a1.587 1.587 0 0 0-.548-2.32l-.555-.297a1.588 1.588 0 0 1-.816-1.668l.104-.618a1.592 1.592 0 0 0-1.505-1.856l-.623-.025a1.587 1.587 0 0 1-1.46-1.148l-.173-.603a1.592 1.592 0 0 0-2.158-1.02l-.574.248a1.592 1.592 0 0 1-1.816-.401l-.415-.465a1.592 1.592 0 0 0-2.39.014l-.411.47a1.59 1.59 0 0 1-1.806.426l-.58-.237A1.591 1.591 0 0 0 5.755 2.26l-.163.603a1.59 1.59 0 0 1-1.445 1.168l-.624.035A1.592 1.592 0 0 0 2.048 5.94l.113.614a1.592 1.592 0 0 1-.791 1.677l-.55.302a1.593 1.593 0 0 0-.514 2.331l.37.505c.402.554.412 1.301.016 1.855l-.362.51a1.587 1.587 0 0 0 .55 2.32l.554.298c.604.321.93.994.816 1.667l-.103.619a1.592 1.592 0 0 0 1.504 1.856l.623.024c.683.03 1.272.49 1.46 1.148l.173.604a1.592 1.592 0 0 0 2.158 1.02l.574-.248a1.592 1.592 0 0 1 1.816.401l.416.465a1.59 1.59 0 0 0 2.385-.02l.41-.47a1.59 1.59 0 0 1 1.807-.425l.579.237a1.591 1.591 0 0 0 2.142-1.054l.164-.604a1.59 1.59 0 0 1 1.445-1.167l.623-.035a1.592 1.592 0 0 0 1.475-1.875l-.114-.614a1.592 1.592 0 0 1 .792-1.678l.549-.301a1.585 1.585 0 0 0 .52-2.326" mask="url(#b)"/></g></svg>