<svg height="512" viewBox="0 0 512 512" width="512" xmlns="http://www.w3.org/2000/svg" fill="#ad1318"><path d="m320 424a24 24 0 0 1 -16.971-40.971l127.03-127.029-127.03-127.029a24 24 0 0 1 33.942-33.942l144 144a24 24 0 0 1 0 33.942l-144 144a23.928 23.928 0 0 1 -16.971 7.029zm-119.029-7.029 144-144a24 24 0 0 0 0-33.942l-144-144a24 24 0 0 0 -33.942 33.942l127.03 127.029-127.03 127.029a24 24 0 0 0 33.942 33.942zm-136 0 144-144a24 24 0 0 0 0-33.942l-144-144a24 24 0 0 0 -33.942 33.942l127.03 127.029-127.03 127.029a24 24 0 0 0 33.942 33.942z"/></svg>