<svg xmlns="http://www.w3.org/2000/svg" viewBox="0 0 100 100"><path d="M96.3.2L85.7 5.1c-.7.3-1.3.7-1.9 1.2L66.6 23.6 7.2 16.4c-1-.1-2.2.2-2.9 1L1 20.8c-1.8 1.8-1.2 4.8 1 5.7l42.5 19.1-12.1 12.1H11.1c-.9 0-1.9.4-2.5 1l-1.8 1.8c-1.8 1.8-1.2 4.8 1.1 5.8l18 7.7 7.7 18c.9 2.3 4 2.9 5.8 1.1l1.8-1.8c.6-.6 1-1.5 1-2.5V67.6l12.2-12.2 19.1 42.5c1 2.3 3.9 2.8 5.7 1l3.3-3.3c.7-.7 1.1-1.9 1-2.9l-7.1-59.4 17.2-17.2c.5-.5.9-1.1 1.2-1.9l4.9-10.5c1-2.2-1.2-4.4-3.4-3.5z" fill="#020203"/><path d="M95.8 30.1c1.1 0 2 .9 2 2v2c0 3.2-3.7 3.9-6.4 3.9l-4.3-8h8.7v.1zm-5.8 14c2.5 4.7 3.8 9 3.8 14.6 0 5.5-1.6 10.1-4 15.8v7.3c0 2.2-1.8 4-4 4h-6c-2.2 0-4-1.8-4-4v-4H24.1v4c0 2.2-1.8 4-4 4h-6c-2.2 0-4-1.8-4-4v-7.3c-2.4-5.8-4-10.4-4-15.8 0-5.6 1.2-9.9 3.8-14.6 3.3-6.1 7.4-13.7 11.7-20.9 3.3-5.5 5-6.8 9.1-7.5 6.1-1.1 11.6-1.5 19.3-1.5s13.2.4 19.3 1.5c4 .7 5.8 2 9.1 7.5 4.3 7.1 8.3 14.7 11.6 20.9zM26.1 56c0-3.3-2.7-6-6-6s-6 2.7-6 6 2.7 6 6 6 6-2.7 6-6zm39.8 3.9c0-1.1-.9-2-2-2H36.1c-1.1 0-2 .9-2 2s.9 2 2 2H64c1 0 1.9-.9 1.9-2zM77.6 38s-2.9-7.3-6.5-12.5c-.8-1.2-2-2-3.5-2.3-6-1.1-11.3-1.4-17.7-1.4s-11.7.3-17.7 1.4c-1.4.3-2.7 1.1-3.5 2.3-3.4 5.2-6.3 12.5-6.3 12.5 6.5 1.2 17.1 2 27.6 2s21.1-.8 27.6-2zm8.2 18c0-3.3-2.7-6-6-6s-6 2.7-6 6 2.7 6 6 6 6-2.7 6-6zM13 30.1H4.2c-1.1 0-2 .9-2 2v2c0 3.2 3.7 3.9 6.4 3.9l4.4-7.9z" fill="#020203"/></svg>