<svg xmlns="http://www.w3.org/2000/svg" viewBox="0 0 100 100"><path d="M.848 34.062l6.3 4.8-5.9 11.3c-2.9 5.2 2.1 10.2 5.3 12 3.2 1.7 8.1 1.9 12.7 1.9l8.3-13.5 6.2 3.4-10.9-20.1zm.9 27.5l13.4 24.8c2.7 3.4 7.8 4.3 13 4.1h14.1v-23.5l-26.7-.1c-4.2.2-9.6-.7-13.8-5.3zm84.3-45.6l-7.3 3.1-7-10.6c-3.1-5.1-10-3.1-13.1-1.2-3 1.9-5.6 6.1-7.8 10.2l7.8 13.8-6 3.8 22.8.3zm-24.5-12.6l-28.1-.3c-4.4.7-7.5 4.8-10 9.4l-6.8 12.4 20.5 11.4 13.1-23.4c1.8-3.7 5.2-8.1 11.3-9.5zm1.2 95.5l.8-7.9 12.7-1c6-.3 7.6-7.2 7.4-10.9-.2-3.6-2.6-7.9-5.1-11.7l-15.8.2-.4-7.1-11.4 19.9zm22.9-15.3l13.9-24.5c1.5-4.1-.5-8.8-3.4-13.2l-7.5-12-19.9 12.4 14 22.8c2.5 3.4 4.6 8.5 2.9 14.5z" fill="#df5656" fill-rule="evenodd"/><path d="M85.862 82.86c.471-1.965.55-4.333.211-6.281-.41-2.352-1.367-4.65-2.918-6.998-1.025-1.552-14.248-23.11-14.258-23.245-.008-.1 19.71-12.472 19.764-12.4.257.354 8.554 13.71 8.903 14.332 1.243 2.218 2.088 4.493 2.348 6.325.195 1.37.051 3.202-.33 4.204-.145.384-13.53 24.062-13.697 24.234-.055.055-.062-.004-.023-.17zm-61.354 7.502c-3.804-.31-6.798-1.45-8.656-3.3l-.64-.636L8.654 74.28c-3.606-6.681-6.557-12.176-6.557-12.211 0-.036.277.192.615.505a15.937 15.937 0 0 0 6.88 3.73c2.347.602 1.64.574 15.34.607 6.793.017 13.469.054 14.835.084l2.483.053v23.41l-8.426-.011c-4.634-.007-8.826-.045-9.316-.085zm3.947-58.977c-11.44-6.361-11.717-6.517-11.7-6.601.027-.128 7.068-12.943 7.643-13.91 1.229-2.064 2.43-3.632 3.781-4.933 1.409-1.357 2.94-2.271 4.467-2.667l.711-.184 12.447.137c6.846.075 13.135.138 13.975.14l1.528.004-.685.202a15.701 15.701 0 0 0-7.47 4.825c-1.027 1.19-1.795 2.326-2.71 4.007-.947 1.738-13.21 23.663-13.277 23.738-.028.032-3.948-2.11-8.71-4.758z" fill="#1ca200" stroke-width=".085"/></svg>