<svg xmlns="http://www.w3.org/2000/svg" viewBox="0 0 100 100"><path d="M25.33.13c-1.61.24-3.99 1.08-5.23 1.83-2.76 1.7-4.67 4.44-5.75 8.16-1.02 3.5-.99 3.09-.99 33.88 0 31.61-.08 29.58 1.23 31.02 1.23 1.37 1.92 1.61 4.99 1.72l2.67.09-9.48 11.47c-5.22 6.33-9.48 11.54-9.48 11.6s4.22.09 9.38.09h9.38l1.27-2.54 1.27-2.54h50.82l1.27 2.54 1.27 2.54h9.38c5.16 0 9.38-.04 9.38-.09s-4.26-5.25-9.48-11.58l-9.49-11.48 2.69-.09c3.07-.11 3.75-.35 4.99-1.72 1.31-1.45 1.23.59 1.23-31.02 0-30.87.02-30.34-.99-33.88-.82-2.84-1.72-4.42-3.6-6.31-1.83-1.83-3.15-2.6-5.8-3.36L74.74.03 50.6.01C37.32-.03 25.94.03 25.33.13zm37.79 5.24c.77.78.77 1.61 0 2.38l-.57.57H37.46l-.57-.57c-.39-.39-.57-.77-.57-1.19s.18-.8.57-1.19l.57-.57h25.1l.56.57zm8.2 9.46c4.92 1.5 7.5 5.03 8.21 11.25.13 1.13.2 4.26.16 7.78l-.06 5.89-.55.82c-.39.57-.86.97-1.57 1.31l-1.02.47H23.52l-1.02-.47c-.7-.33-1.17-.75-1.57-1.31l-.55-.82-.06-5.89c-.09-8.03.22-10.36 1.72-13.5 1.57-3.24 4.28-5.18 8.12-5.74.64-.09 9.93-.16 20.63-.13 17.56.01 19.55.03 20.53.34zM29.15 51.19c1.45.68 2.5 1.68 3.29 3.11.62 1.17.66 1.33.66 3.18 0 1.61-.08 2.14-.42 2.87-.59 1.29-1.99 2.72-3.33 3.4-1.02.51-1.33.57-3 .57-1.64 0-1.99-.06-2.97-.55-1.5-.75-2.62-1.88-3.34-3.42-.53-1.12-.6-1.52-.6-2.87 0-1.27.09-1.78.51-2.66 1.63-3.59 5.78-5.21 9.2-3.63zm33.96.33v.97h-26.2v-1.94h26.2v.97zm13.39-.31c2.09.95 3.56 2.82 4.01 5.1.59 2.97-1.04 6.08-3.88 7.47-.97.49-1.33.55-2.97.55-1.66 0-1.97-.06-3-.59-1.48-.75-2.91-2.31-3.46-3.77-.35-.92-.41-1.43-.35-2.78.06-1.43.18-1.83.75-2.89.94-1.77 2.58-3.09 4.44-3.56 1.2-.29 3.27-.08 4.46.47zM63.11 63.45v.97h-26.2v-1.94h26.2v.97zm3.77 14.37c.29.6.53 1.13.53 1.17 0 .06-7.81.09-17.4.09-9.56 0-17.4-.04-17.4-.09 0-.04.24-.57.53-1.17l.53-1.08h32.68l.53 1.08zm3.81 7.63c.45.92.82 1.7.82 1.76s-9.68.09-21.51.09-21.51-.04-21.51-.09.37-.84.82-1.76l.82-1.66h39.72l.84 1.66z" fill="#020203"/><path d="M95.8 30.1c1.1 0 2 .9 2 2v2c0 3.2-3.7 3.9-6.4 3.9l-4.3-8h8.7v.1zm-5.8 14c2.5 4.7 3.8 9 3.8 14.6 0 5.5-1.6 10.1-4 15.8v7.3c0 2.2-1.8 4-4 4h-6c-2.2 0-4-1.8-4-4v-4H24.1v4c0 2.2-1.8 4-4 4h-6c-2.2 0-4-1.8-4-4v-7.3c-2.4-5.8-4-10.4-4-15.8 0-5.6 1.2-9.9 3.8-14.6 3.3-6.1 7.4-13.7 11.7-20.9 3.3-5.5 5-6.8 9.1-7.5 6.1-1.1 11.6-1.5 19.3-1.5s13.2.4 19.3 1.5c4 .7 5.8 2 9.1 7.5 4.3 7.1 8.3 14.7 11.6 20.9zM26.1 56c0-3.3-2.7-6-6-6s-6 2.7-6 6 2.7 6 6 6 6-2.7 6-6zm39.8 3.9c0-1.1-.9-2-2-2H36.1c-1.1 0-2 .9-2 2s.9 2 2 2H64c1 0 1.9-.9 1.9-2zM77.6 38s-2.9-7.3-6.5-12.5c-.8-1.2-2-2-3.5-2.3-6-1.1-11.3-1.4-17.7-1.4s-11.7.3-17.7 1.4c-1.4.3-2.7 1.1-3.5 2.3-3.4 5.2-6.3 12.5-6.3 12.5 6.5 1.2 17.1 2 27.6 2s21.1-.8 27.6-2zm8.2 18c0-3.3-2.7-6-6-6s-6 2.7-6 6 2.7 6 6 6 6-2.7 6-6zM13 30.1H4.2c-1.1 0-2 .9-2 2v2c0 3.2 3.7 3.9 6.4 3.9l4.4-7.9z" fill="#020203"/></svg>