<?xml version="1.0" encoding="iso-8859-1"?>
<svg version="1.1" id="Layer_1" xmlns="http://www.w3.org/2000/svg"
     x="0px" y="0px"
     viewBox="0 0 512 512" fill="#1c4254">
  <g>
    <g>
      <path d="M484.948,118.552l-224-117.333c-3.104-1.625-6.792-1.625-9.896,0l-224,117.333c-3.521,1.844-5.719,5.479-5.719,9.448v256
			c0,3.969,2.198,7.604,5.719,9.448l224,117.333c1.552,0.813,3.25,1.219,4.948,1.219c1.698,0,3.396-0.406,4.948-1.219l224-117.333
			c3.521-1.844,5.719-5.479,5.719-9.448V128C490.667,124.031,488.469,120.396,484.948,118.552z M256,22.708L457.01,128
			l-83.794,43.892L167.422,69.107L256,22.708z M245.333,483.704L42.667,377.542V145.628l202.667,106.158V483.704z M256,233.292
			L54.99,128l89.125-46.685l205.798,102.784L256,233.292z M469.333,377.542L266.667,483.704V251.785l96-50.285v129.167
			c0,5.896,4.771,10.667,10.667,10.667c5.896,0,10.667-4.771,10.667-10.667V190.326l85.333-44.698V377.542z"/>
    </g>
  </g>
  <g>
  </g>
  <g>
  </g>
  <g>
  </g>
  <g>
  </g>
  <g>
  </g>
  <g>
  </g>
  <g>
  </g>
  <g>
  </g>
  <g>
  </g>
  <g>
  </g>
  <g>
  </g>
  <g>
  </g>
  <g>
  </g>
  <g>
  </g>
  <g>
  </g>
</svg>
