<svg height="512pt" viewBox="0 0 512 512.001" width="512pt" xmlns="http://www.w3.org/2000/svg" fill="#1c4254"><path d="m511.402344 443.605469-30.890625-218.605469h-75.519531v-42c0-43.007812-34.988282-78-78-78-43.007813 0-78 34.992188-78 78v42h-79.410157l-31.945312 218.3125c-2.527344 17.257812 2.5625 34.726562 13.972656 47.921875 11.40625 13.195313 27.949219 20.765625 45.394531 20.765625h254.988282c17.386718 0 33.898437-7.527344 45.296874-20.652344 11.402344-13.125 16.546876-30.527344 14.113282-47.742187zm-222.410156-260.605469c0-20.953125 17.046874-38 38-38 20.953124 0 38 17.046875 38 38v42h-76zm178.101562 282.113281c-3.855469 4.441407-9.21875 6.886719-15.101562 6.886719h-254.988282c-5.902344 0-11.273437-2.457031-15.132812-6.921875s-5.511719-10.136719-4.65625-15.976563l26.9375-184.101562h44.839844v40h40v-40h76v40h40v-40h40.773437l26.03125 184.199219c.824219 5.824219-.847656 11.476562-4.703125 15.914062zm-334.101562-280.113281v-40h-43l-49.828126 304.4375c-.746093 5.789062.964844 11.386719 4.816407 15.769531 3.851562 4.382813 9.183593 6.792969 15.019531 6.792969h39.019531c2.933594 14.390625 9.035157 28.066406 17.992188 40h-57.011719c-17.25 0-33.671875-7.429688-45.0625-20.382812-11.386719-12.957032-16.652344-30.195313-14.441406-47.304688l54.332031-339.3125h78.164063v-27c0-43.007812 34.992187-78 78-78 40.78125 0 74.328124 31.464844 77.699218 71.386719-14.769531 5.082031-28.222656 13.019531-39.699218 23.152343v-16.539062c0-20.953125-17.046876-38-38-38-20.953126 0-38 17.046875-38 38v27h65.539062c-10.199219 11.554688-18.179688 25.109375-23.257812 40h-42.28125v40zm0 0"/></svg>
