<svg xmlns="http://www.w3.org/2000/svg" viewBox="0 0 100 100"><path d="M0 15.4v59.1c0 .5.1 1.1.2 1.5s.4.8.8 1.1c.3.2.6.5 1 .6.2.2.8.3 1.4.3.6.1 1.1.1 1.3.1h2.8c0 4.1 1.4 7.6 4.3 10.5S18.2 93 22.3 93s7.6-1.4 10.5-4.3c2.9-2.9 4.3-6.4 4.3-10.5h22.2c0 4.1 1.4 7.6 4.3 10.5C66.5 91.6 70 93 74.1 93s7.6-1.4 10.5-4.3 4.3-6.4 4.3-10.5h6.5c.2 0 .6-.1 1.3-.1.6-.1 1.1-.2 1.4-.3.2-.2.5-.4 1-.6.3-.2.6-.6.8-1.1.1-.4.2-1 .2-1.5 0-1-.3-1.8-1.1-2.6s-1.6-1.1-2.6-1.1V48.1c0-.5-.1-1.1-.1-1.9-.1-.9-.2-1.6-.3-2.2-.2-.5-.4-1.1-.8-1.7-.8-.8-1.2-1.3-1.6-1.8L82.1 29.1c-.8-.8-1.7-1.3-2.9-1.8s-2.4-.8-3.4-.8h-9.3V15.4c0-1-.3-1.8-1.1-2.6s-1.6-1.1-2.6-1.1H3.7c-1 0-1.8.3-2.6 1.1S0 14.4 0 15.4zm66.5 62.8c0-2.1.8-3.8 2.2-5.2 1.5-1.5 3.2-2.2 5.2-2.2 2.1 0 3.8.8 5.2 2.2 1.5 1.5 2.2 3.2 2.2 5.2 0 2.1-.8 3.8-2.2 5.2-1.5 1.5-3.2 2.2-5.2 2.2-2.1 0-3.8-.8-5.2-2.2-1.5-1.4-2.2-3.1-2.2-5.2zm0-44.3h9.1c.5 0 1 .2 1.3.5l11.2 11.2c.3.3.5.8.5 1.3v1.7H66.5V33.9zM14.7 78.2c0-2.1.8-3.8 2.2-5.2 1.5-1.5 3.2-2.2 5.2-2.2 2.1 0 3.8.8 5.2 2.2 1.5 1.5 2.2 3.2 2.2 5.2 0 2.1-.8 3.8-2.2 5.2-1.5 1.5-3.2 2.2-5.2 2.2-2.1 0-3.8-.8-5.2-2.2-1.4-1.4-2.2-3.1-2.2-5.2z"/></svg>