<svg version="1.0" xmlns="http://www.w3.org/2000/svg" width="800" height="800" viewBox="0 0 600 600"><path d="M132.1 16.6c-25 6.7-40.9 32.7-34.6 56.7 4.8 18.7 19.7 32.4 38.6 35.8 23.7 4.2 48.1-12.7 53.2-36.9 1-4.5 1.7-5.9 4.1-7.1 13.2-7.2 25.4-17.8 29.5-25.9 2.2-4.3 2.9-12.2 1.1-12.2-.6 0-9.9 2.5-20.7 5.5-18.2 5.1-19.8 5.4-20.7 3.8-2.1-3.8-9.7-11-15.1-14.2-10.8-6.5-24-8.6-35.4-5.5zm-33.3 96.3c-7.9 2.6-13.8 6.2-19.8 12.3-5.6 5.7-11.6 16.9-12.8 23.8-.4 2.5-.5 44-.2 92.3l.5 87.9 2.8 2.4c2.6 2.2 3.6 2.4 13.5 2.4h10.7l12.9 42.2c7.1 23.3 19.2 62.3 26.8 86.8 7.6 24.5 17.5 56.6 22 71.5 8.4 28.3 11 34.1 17.3 39 7.9 5.9 19.3 7.2 28 3.1 9.5-4.4 16.5-15.1 16.5-25.1 0-2.9-12.9-45.6-54-179l-12-38.9 2.8-2.9 2.7-2.8V199s8.8 10.1 19.5 22.5c16.1 18.6 20.4 22.9 24.7 25.1l5.1 2.6 23.4-2.1c12.8-1.2 24.1-2.1 25-2.1 1.2 0 4.7 6.1 12.1 21.2 11 22.4 61.9 125.6 110.1 223.3 15.7 31.9 29.3 58.8 30.1 59.8.8.9 2.6 1.7 4 1.7 2.8 0 141.9-69.2 145.3-72.3 2.7-2.6 2.8-4.7.1-8.1-1.4-1.7-3-2.6-5-2.6-1.8 0-27.7 12.4-70 33.6-36.9 18.4-67.2 33.4-67.3 33.2-.2-.5-17.3-35.2-81.2-164.7-42.1-85.6-62.4-127.6-61.5-127.9 3-1 8.1-6.6 9.7-10.7 4-10.6-2.1-22.3-13.3-25.4-2.4-.7-10.7-.4-27 1-22.8 2-23.6 2-25.3.2-11.7-12.5-46.4-53.4-56.5-66.6-14.6-19.1-20.3-24-32.1-27.7-8.4-2.5-19.7-2.6-27.6-.1z"/><path d="M474.6 286.9c-17.5 8.3-32 15.2-32.2 15.4-.2.2 5.4 13.3 12.6 29 7.1 15.7 13 29.5 13 30.6 0 5.2-1.9 7.2-10.6 11.3-8 3.7-9 3.9-12.4 2.9-2.1-.6-4.2-1.7-4.7-2.4-.6-.6-6.8-13.9-13.8-29.5-7-15.5-13-28.2-13.3-28.2-.8 0-67.6 31.1-68.5 31.9-.4.4 2.1 6.8 5.7 14.2 3.5 7.4 20.6 44 38.1 81.4 17.5 37.4 31.9 68.1 32 68.3.3.3 162.4-75.3 163.2-76.2.5-.5-9.8-22.8-62.7-136-7-14.9-13-27.1-13.6-27.3-.5-.2-15.2 6.4-32.8 14.6zM108.4 449.3c-4.4 4-25.6 23.3-47.1 43-44.2 40.4-43.8 39.9-43.8 52.7 0 6.4.4 8.3 2.9 12.8 7.2 12.8 22.6 17.8 35.6 11.4 2.5-1.2 11.7-8.8 20.5-16.9 8.9-8.2 25.6-23.5 37.3-34.2 11.6-10.7 20.9-19.7 20.7-20.2-.3-.4-4.3-13-9-28s-8.7-27.4-8.8-27.6c-.2-.1-3.9 3-8.3 7zm203.4 42.6c-21.3 6.8-35.2 29.1-31.8 50.8 2.8 17.4 14.9 31.5 32.1 37.3 5.4 1.9 8 2.1 16.1 1.8 8.5-.4 10.5-.9 17.2-4.1 10.1-4.8 17-11.7 22.2-22.2 3.9-7.8 3.9-8 3.9-19.4 0-11.3-.1-11.8-3.6-19.1-6.2-12.9-15.5-21.2-28-25.1-7.9-2.5-20.3-2.4-28.1 0z"/></svg>