<?xml version="1.0" encoding="utf-8"?>
<!-- Generator: Adobe Illustrator 22.1.0, SVG Export Plug-In . SVG Version: 6.00 Build 0)  -->
<svg version="1.1" id="Слой_1" xmlns="http://www.w3.org/2000/svg" xmlns:xlink="http://www.w3.org/1999/xlink" x="0px" y="0px"
	 viewBox="0 0 100 100" style="enable-background:new 0 0 100 100;" xml:space="preserve">
<g>
	<path d="M0,15.4v59.1c0,0.5,0.1,1.1,0.2,1.5s0.4,0.8,0.8,1.1c0.3,0.2,0.6,0.5,1,0.6c0.2,0.2,0.8,0.3,1.4,0.3
		c0.6,0.1,1.1,0.1,1.3,0.1s0.8,0,1.5,0s1.2,0,1.3,0c0,4.1,1.4,7.6,4.3,10.5S18.2,93,22.3,93s7.6-1.4,10.5-4.3
		c2.9-2.9,4.3-6.4,4.3-10.5h22.2c0,4.1,1.4,7.6,4.3,10.5c2.9,2.9,6.4,4.3,10.5,4.3s7.6-1.4,10.5-4.3s4.3-6.4,4.3-10.5h3.7
		c0.1,0,0.5,0,1.3,0c0.8,0,1.2,0,1.5,0c0.2,0,0.6-0.1,1.3-0.1c0.6-0.1,1.1-0.2,1.4-0.3c0.2-0.2,0.5-0.4,1-0.6
		c0.3-0.2,0.6-0.6,0.8-1.1c0.1-0.4,0.2-1,0.2-1.5c0-1-0.3-1.8-1.1-2.6c-0.8-0.8-1.6-1.1-2.6-1.1V52.4c0-0.3,0-1,0-2.1s0-1.7,0-2.2
		s-0.1-1.1-0.1-1.9c-0.1-0.9-0.2-1.6-0.3-2.2c-0.2-0.5-0.4-1.1-0.8-1.7c-0.8-0.8-1.2-1.3-1.6-1.8L82.1,29.1
		c-0.8-0.8-1.7-1.3-2.9-1.8s-2.4-0.8-3.4-0.8h-9.3V15.4c0-1-0.3-1.8-1.1-2.6c-0.8-0.8-1.6-1.1-2.6-1.1H3.7c-1,0-1.8,0.3-2.6,1.1
		C0.3,13.6,0,14.4,0,15.4z M66.5,78.2c0-2.1,0.8-3.8,2.2-5.2c1.5-1.5,3.2-2.2,5.2-2.2c2.1,0,3.8,0.8,5.2,2.2
		c1.5,1.5,2.2,3.2,2.2,5.2c0,2.1-0.8,3.8-2.2,5.2c-1.5,1.5-3.2,2.2-5.2,2.2c-2.1,0-3.8-0.8-5.2-2.2C67.2,82,66.5,80.3,66.5,78.2z
		 M66.5,33.9h9.1c0.5,0,1,0.2,1.3,0.5l11.2,11.2c0.3,0.3,0.5,0.8,0.5,1.3v1.7H66.5V33.9z M14.7,78.2c0-2.1,0.8-3.8,2.2-5.2
		c1.5-1.5,3.2-2.2,5.2-2.2c2.1,0,3.8,0.8,5.2,2.2c1.5,1.5,2.2,3.2,2.2,5.2c0,2.1-0.8,3.8-2.2,5.2c-1.5,1.5-3.2,2.2-5.2,2.2
		c-2.1,0-3.8-0.8-5.2-2.2C15.5,82,14.7,80.3,14.7,78.2z"/>
</g>
</svg>
