<?xml version="1.0" encoding="utf-8"?>
<!-- Generator: Adobe Illustrator 22.1.0, SVG Export Plug-In . SVG Version: 6.00 Build 0)  -->
<svg version="1.1" id="Слой_1" xmlns="http://www.w3.org/2000/svg" xmlns:xlink="http://www.w3.org/1999/xlink" x="0px" y="0px"
	 viewBox="0 0 100 100" style="enable-background:new 0 0 100 100;" xml:space="preserve">
<style type="text/css">
	.st0{fill:#020203;}
	.st1{display:none;}
	.st2{display:inline;}
	.st3{display:inline;fill:#020203;}
</style>
<g id="Слой_1_1_">
	<g>
		<path class="st0" d="M96.3,0.2L85.7,5.1c-0.7,0.3-1.3,0.7-1.9,1.2L66.6,23.6L7.2,16.4c-1-0.1-2.2,0.2-2.9,1L1,20.8
			c-1.8,1.8-1.2,4.8,1,5.7l42.5,19.1L32.4,57.7H11.1c-0.9,0-1.9,0.4-2.5,1l-1.8,1.8c-1.8,1.8-1.2,4.8,1.1,5.8l18,7.7l7.7,18
			c0.9,2.3,4,2.9,5.8,1.1l1.8-1.8c0.6-0.6,1-1.5,1-2.5V67.6l12.2-12.2l19.1,42.5c1,2.3,3.9,2.8,5.7,1l3.3-3.3c0.7-0.7,1.1-1.9,1-2.9
			l-7.1-59.4l17.2-17.2c0.5-0.5,0.9-1.1,1.2-1.9l4.9-10.5C100.7,1.5,98.5-0.7,96.3,0.2z"/>
	</g>
</g>
<g id="Слой_2_1_" class="st1">
	<g class="st2">
		<g transform="translate(0.000000,512.000000) scale(0.100000,-0.100000)">
			<path class="st0" d="M266,5101.2c-15.5-2.3-38.5-10.4-50.5-17.7c-26.6-16.4-45.1-42.8-55.5-78.7c-9.8-33.8-9.6-29.8-9.6-326.9
				c0-305-0.8-285.4,11.9-299.3c11.9-13.2,18.5-15.5,48.1-16.6l25.8-0.9l-91.5-110.7c-50.4-61.1-91.5-111.3-91.5-111.9
				s40.7-0.9,90.5-0.9h90.5l12.3,24.5l12.3,24.5H504h245.2l12.3-24.5l12.3-24.5h90.5c49.8,0,90.5,0.4,90.5,0.9
				s-41.1,50.7-91.5,111.7L771.7,4361l26,0.9c29.6,1.1,36.2,3.4,48.1,16.6c12.6,14,11.9-5.7,11.9,299.3c0,297.8,0.2,292.7-9.6,326.9
				c-7.9,27.4-16.6,42.6-34.7,60.9c-17.7,17.7-30.4,25.1-56,32.4l-14.7,4.1l-232.9,0.2C381.7,5102.7,271.9,5102.1,266,5101.2z
				 M630.6,5050.6c7.4-7.5,7.4-15.5,0-23l-5.5-5.5h-121H383l-5.5,5.5c-3.8,3.8-5.5,7.4-5.5,11.5s1.7,7.7,5.5,11.5l5.5,5.5h121.1
				h121.1L630.6,5050.6z M709.7,4959.3c47.5-14.5,72.4-48.5,79.2-108.5c1.3-10.9,1.9-41.1,1.5-75.1l-0.6-56.8l-5.3-7.9
				c-3.8-5.5-8.3-9.4-15.1-12.6l-9.8-4.5H504.1H248.5l-9.8,4.5c-6.8,3.2-11.3,7.2-15.1,12.6l-5.3,7.9l-0.6,56.8
				c-0.9,77.5,2.1,100,16.6,130.3c15.1,31.3,41.3,50,78.3,55.4c6.2,0.9,95.8,1.5,199,1.3C681,4962.5,700.2,4962.3,709.7,4959.3z
				 M302.8,4608.5c14-6.6,24.1-16.2,31.7-30c6-11.3,6.4-12.8,6.4-30.7c0-15.5-0.8-20.6-4.1-27.7c-5.7-12.4-19.2-26.2-32.1-32.8
				c-9.8-4.9-12.8-5.5-28.9-5.5c-15.8,0-19.2,0.6-28.7,5.3c-14.5,7.2-25.3,18.1-32.2,33c-5.1,10.8-5.8,14.7-5.8,27.7
				c0,12.3,0.9,17.2,4.9,25.7C229.8,4608.1,269.8,4623.8,302.8,4608.5z M630.5,4605.3v-9.4H504.1H377.7v9.4v9.4h126.4h126.4V4605.3z
				 M759.7,4608.3c20.2-9.2,34.3-27.2,38.7-49.2c5.7-28.7-10-58.7-37.4-72.1c-9.4-4.7-12.8-5.3-28.7-5.3c-16,0-19,0.6-28.9,5.7
				c-14.3,7.2-28.1,22.3-33.4,36.4c-3.4,8.9-4,13.8-3.4,26.8c0.6,13.8,1.7,17.7,7.2,27.9c9.1,17.1,24.9,29.8,42.8,34.3
				C728.2,4615.7,748.2,4613.6,759.7,4608.3z M630.5,4490.2v-9.4H504.1H377.7v9.4v9.4h126.4h126.4V4490.2z M666.9,4351.6
				c2.8-5.8,5.1-10.9,5.1-11.3c0-0.6-75.4-0.9-167.9-0.9c-92.2,0-167.9,0.4-167.9,0.9c0,0.4,2.3,5.5,5.1,11.3l5.1,10.4h157.7h157.7
				L666.9,4351.6z M703.6,4278c4.3-8.9,7.9-16.4,7.9-17s-93.4-0.9-207.5-0.9s-207.5,0.4-207.5,0.9s3.6,8.1,7.9,17l7.9,16h191.6
				h191.6L703.6,4278z"/>
		</g>
	</g>
</g>
<g id="Слой_3" class="st1">
	<path class="st3" d="M95.8,30.1c1.1,0,2,0.9,2,2v2c0,3.2-3.7,3.9-6.4,3.9l-4.3-8h8.7V30.1z M90,44.1c2.5,4.7,3.8,9,3.8,14.6
		c0,5.5-1.6,10.1-4,15.8v7.3c0,2.2-1.8,4-4,4h-6c-2.2,0-4-1.8-4-4v-4H24.1v4c0,2.2-1.8,4-4,4h-6c-2.2,0-4-1.8-4-4v-7.3
		c-2.4-5.8-4-10.4-4-15.8c0-5.6,1.2-9.9,3.8-14.6c3.3-6.1,7.4-13.7,11.7-20.9c3.3-5.5,5-6.8,9.1-7.5c6.1-1.1,11.6-1.5,19.3-1.5
		s13.2,0.4,19.3,1.5c4,0.7,5.8,2,9.1,7.5C82.7,30.3,86.7,37.9,90,44.1z M26.1,56c0-3.3-2.7-6-6-6s-6,2.7-6,6s2.7,6,6,6
		S26.1,59.3,26.1,56z M65.9,59.9c0-1.1-0.9-2-2-2H36.1c-1.1,0-2,0.9-2,2s0.9,2,2,2H64C65,61.9,65.9,61,65.9,59.9z M77.6,38
		c0,0-2.9-7.3-6.5-12.5c-0.8-1.2-2-2-3.5-2.3c-6-1.1-11.3-1.4-17.7-1.4s-11.7,0.3-17.7,1.4c-1.4,0.3-2.7,1.1-3.5,2.3
		C25.3,30.7,22.4,38,22.4,38c6.5,1.2,17.1,2,27.6,2S71.1,39.2,77.6,38z M85.8,56c0-3.3-2.7-6-6-6s-6,2.7-6,6s2.7,6,6,6
		S85.8,59.3,85.8,56z M13,30.1H4.2c-1.1,0-2,0.9-2,2v2c0,3.2,3.7,3.9,6.4,3.9L13,30.1z"/>
</g>
</svg>
