<?xml version="1.0" encoding="UTF-8" standalone="no"?>
<svg
   xmlns:dc="http://purl.org/dc/elements/1.1/"
   xmlns:cc="http://creativecommons.org/ns#"
   xmlns:rdf="http://www.w3.org/1999/02/22-rdf-syntax-ns#"
   xmlns:svg="http://www.w3.org/2000/svg"
   xmlns="http://www.w3.org/2000/svg"
   xmlns:sodipodi="http://sodipodi.sourceforge.net/DTD/sodipodi-0.dtd"
   xmlns:inkscape="http://www.inkscape.org/namespaces/inkscape"
   viewBox="0 0 100 100"
   version="1.1"
   id="svg3731"
   sodipodi:docname="Копия i-store-ico-2.svg"
   inkscape:version="0.92.3 (2405546, 2018-03-11)">
  <metadata
     id="metadata3735">
    <rdf:RDF>
      <cc:Work
         rdf:about="">
        <dc:format>image/svg+xml</dc:format>
        <dc:type
           rdf:resource="http://purl.org/dc/dcmitype/StillImage" />
        <dc:title></dc:title>
      </cc:Work>
    </rdf:RDF>
  </metadata>
  <sodipodi:namedview
     pagecolor="#ffffff"
     bordercolor="#666666"
     borderopacity="1"
     objecttolerance="10"
     gridtolerance="10"
     guidetolerance="10"
     inkscape:pageopacity="0"
     inkscape:pageshadow="2"
     inkscape:window-width="2560"
     inkscape:window-height="1485"
     id="namedview3733"
     showgrid="false"
     inkscape:zoom="11.78"
     inkscape:cx="30.093379"
     inkscape:cy="50"
     inkscape:window-x="-13"
     inkscape:window-y="-13"
     inkscape:window-maximized="1"
     inkscape:current-layer="svg3731" />
  <defs
     id="defs3727">
    <style
       id="style3725">.cls-1 { fill: #df5656; fill-rule: evenodd; }</style>
  </defs>
  <path
     class="cls-1"
     d="m 0.8475382,34.06163 6.3000004,4.8 -5.9000002,11.3 c -2.8999998,5.2 2.1000002,10.2 5.3000002,12 3.2,1.7 8.1000034,1.9 12.7000034,1.9 l 8.3,-13.5 6.2,3.4 -10.9,-20.1 z m 0.9000004,27.5 13.4000034,24.8 c 2.7,3.4 7.8,4.3 13,4.1 h 14.1 v -23.5 l -26.7,-0.1 c -4.2,0.2 -9.6000034,-0.7 -13.8000034,-5.3 z m 84.3000034,-45.6 -7.3,3.1 -7,-10.6000002 c -3.1,-5.1 -10,-3.1 -13.1,-1.2 -3,1.9 -5.6,6.1000002 -7.8,10.2000002 l 7.8,13.8 -6,3.8 22.8,0.3 z m -24.5,-12.6000002 -28.1,-0.3 c -4.4,0.7 -7.5,4.8 -10,9.4000002 l -6.8,12.4 20.5,11.4 13.1,-23.4 c 1.8,-3.7000002 5.2,-8.1000002 11.3,-9.5000002 z m 1.2,95.5000002 0.8,-7.9 12.7,-1 c 6,-0.3 7.6,-7.2 7.4,-10.9 -0.2,-3.6 -2.6,-7.9 -5.1,-11.7 l -15.8,0.2 -0.4,-7.1 -11.4,19.9 z m 22.9,-15.3 13.9,-24.5 c 1.499958,-4.1 -0.5,-8.8 -3.4,-13.2 l -7.5,-12 -19.9,12.4 14,22.8 c 2.5,3.4 4.6,8.5 2.9,14.5 z"
     id="path3729"
     inkscape:connector-curvature="0"
     style="fill:#df5656;fill-rule:evenodd" />
  <path
     style="fill:#1ca200;stroke-width:0.08488964;fill-opacity:1"
     d="m 85.862469,82.860781 c 0.470528,-1.965706 0.549999,-4.33402 0.210793,-6.281834 C 85.663645,74.226806 84.7057,71.92961 83.15501,69.580841 82.130485,68.029034 68.907382,46.471924 68.896847,46.336314 68.889041,46.23582 88.607851,33.864498 88.660542,33.936831 c 0.257413,0.353369 8.554453,13.708536 8.903548,14.33142 1.242764,2.217445 2.087432,4.492524 2.348014,6.324279 0.194916,1.370137 0.05121,3.202081 -0.329844,4.204936 -0.145571,0.383111 -13.529575,24.061222 -13.697708,24.233094 -0.05427,0.05548 -0.06193,-0.0033 -0.02208,-0.169779 z"
     id="path3739"
     inkscape:connector-curvature="0" />
  <path
     style="fill:#1ca200;fill-opacity:1;stroke-width:0.08488964"
     d="M 24.50764,90.362265 C 20.704239,90.05284 17.71046,88.911618 15.852166,87.062818 L 15.212224,86.426146 8.6544992,74.279617 C 5.0477504,67.599026 2.0967742,62.10415 2.0967742,62.068782 c 0,-0.03537 0.2769525,0.192154 0.6154499,0.505605 1.9274408,1.784825 4.2916481,3.066622 6.8796183,3.729909 2.3473936,0.601629 1.6396536,0.57363 15.3402456,0.606883 6.793294,0.01649 13.468803,0.05409 14.834465,0.08355 l 2.483023,0.05357 v 11.705049 11.705048 l -8.425298,-0.01181 c -4.633913,-0.0065 -8.8264,-0.04444 -9.316638,-0.08433 z"
     id="path4546"
     inkscape:connector-curvature="0" />
  <path
     style="fill:#1ca200;fill-opacity:1;stroke-width:0.08488964"
     d="M 28.455008,31.385488 C 17.01416,25.023666 16.737822,24.867739 16.755159,24.783702 c 0.02643,-0.128108 7.067932,-12.942547 7.643148,-13.909339 1.228432,-2.0646839 2.429947,-3.6325846 3.78075,-4.9336408 1.408665,-1.3567875 2.939815,-2.2706853 4.467324,-2.6664114 l 0.710897,-0.1841695 12.446998,0.1368658 c 6.845848,0.075276 13.134603,0.1383943 13.975011,0.1402625 l 1.528014,0.0034 -0.684927,0.202634 c -2.915301,0.8624847 -5.483775,2.5213427 -7.470849,4.8250742 -1.026164,1.1896931 -1.794727,2.3259532 -2.7101,4.0066722 -0.94627,1.73745 -13.208983,23.662844 -13.276708,23.73839 -0.02803,0.03127 -3.9474,-2.10981 -8.709709,-4.757949 z"
     id="path4548"
     inkscape:connector-curvature="0" />
</svg>
