<?xml version="1.0" encoding="utf-8"?>
<!-- Generator: Adobe Illustrator 22.1.0, SVG Export Plug-In . SVG Version: 6.00 Build 0)  -->
<svg version="1.1" id="Слой_1" xmlns="http://www.w3.org/2000/svg" xmlns:xlink="http://www.w3.org/1999/xlink" x="0px" y="0px"
	 viewBox="0 0 100 100" style="enable-background:new 0 0 100 100;" xml:space="preserve">
<style type="text/css">
	.st0{display:none;}
	.st1{display:inline;}
	.st2{fill:#020203;}
	.st3{display:inline;fill:#020203;}
</style>
<g id="Слой_1_1_" class="st0">
	<g class="st1">
		<path class="st2" d="M95.2,1.4L85,6.1c-0.7,0.3-1.3,0.7-1.8,1.2L66.5,24L9,17.1c-1-0.1-2.1,0.2-2.8,1L3,21.3
			c-1.7,1.7-1.2,4.6,1,5.5l41.2,18.5L33.4,57.1H12.7c-0.9,0-1.8,0.4-2.4,1l-1.7,1.7c-1.7,1.7-1.2,4.6,1.1,5.6l17.4,7.5l7.5,17.4
			c0.9,2.2,3.9,2.8,5.6,1.1l1.7-1.7c0.6-0.6,1-1.5,1-2.4V66.6l11.8-11.8L73.2,96c1,2.2,3.8,2.7,5.5,1l3.2-3.2c0.7-0.7,1.1-1.8,1-2.8
			L76,33.5l16.7-16.7c0.5-0.5,0.9-1.1,1.2-1.8l4.7-10.2C99.5,2.6,97.4,0.5,95.2,1.4z"/>
	</g>
</g>
<g id="Слой_2_1_">
	<g>
		<g transform="translate(0.000000,512.000000) scale(0.100000,-0.100000)">
			<path class="st2" d="M253.3,5118.7c-16.1-2.4-39.9-10.8-52.3-18.3c-27.6-17-46.7-44.4-57.5-81.6c-10.2-35-9.9-30.9-9.9-338.8
				c0-316.1-0.8-295.8,12.3-310.2c12.3-13.7,19.2-16.1,49.9-17.2l26.7-0.9l-94.8-114.7c-52.2-63.3-94.8-115.4-94.8-116
				s42.2-0.9,93.8-0.9h93.8l12.7,25.4l12.7,25.4H500h254.1l12.7-25.4l12.7-25.4h93.8c51.6,0,93.8,0.4,93.8,0.9
				c0,0.5-42.6,52.5-94.8,115.8l-94.9,114.8l26.9,0.9c30.7,1.1,37.5,3.5,49.9,17.2c13.1,14.5,12.3-5.9,12.3,310.2
				c0,308.7,0.2,303.4-9.9,338.8c-8.2,28.4-17.2,44.2-36,63.1c-18.3,18.3-31.5,26-58,33.6l-15.2,4.3l-241.4,0.2
				C373.2,5120.3,259.4,5119.7,253.3,5118.7z M631.2,5066.3c7.7-7.8,7.7-16.1,0-23.8l-5.7-5.7H500.1H374.6l-5.7,5.7
				c-3.9,3.9-5.7,7.7-5.7,11.9s1.8,8,5.7,11.9l5.7,5.7h125.5h125.5L631.2,5066.3z M713.2,4971.7c49.2-15,75-50.3,82.1-112.5
				c1.3-11.3,2-42.6,1.6-77.8l-0.6-58.9l-5.5-8.2c-3.9-5.7-8.6-9.7-15.7-13.1l-10.2-4.7H500.1H235.2l-10.2,4.7
				c-7,3.3-11.7,7.5-15.7,13.1l-5.5,8.2l-0.6,58.9c-0.9,80.3,2.2,103.6,17.2,135c15.7,32.4,42.8,51.8,81.2,57.4
				c6.4,0.9,99.3,1.6,206.3,1.3C683.5,4975,703.4,4974.8,713.2,4971.7z M291.5,4608.1c14.5-6.8,25-16.8,32.9-31.1
				c6.2-11.7,6.6-13.3,6.6-31.8c0-16.1-0.8-21.4-4.2-28.7c-5.9-12.9-19.9-27.2-33.3-34c-10.2-5.1-13.3-5.7-30-5.7
				c-16.4,0-19.9,0.6-29.7,5.5c-15,7.5-26.2,18.8-33.4,34.2c-5.3,11.2-6,15.2-6,28.7c0,12.7,0.9,17.8,5.1,26.6
				C215.8,4607.7,257.3,4623.9,291.5,4608.1z M631.1,4604.8v-9.7h-131h-131v9.7v9.7h131h131V4604.8z M765,4607.9
				c20.9-9.5,35.6-28.2,40.1-51c5.9-29.7-10.4-60.8-38.8-74.7c-9.7-4.9-13.3-5.5-29.7-5.5c-16.6,0-19.7,0.6-30,5.9
				c-14.8,7.5-29.1,23.1-34.6,37.7c-3.5,9.2-4.1,14.3-3.5,27.8c0.6,14.3,1.8,18.3,7.5,28.9c9.4,17.7,25.8,30.9,44.4,35.6
				C732.4,4615.5,753.1,4613.4,765,4607.9z M631.1,4485.5v-9.7h-131h-131v9.7v9.7h131h131V4485.5z M668.8,4341.8
				c2.9-6,5.3-11.3,5.3-11.7c0-0.6-78.1-0.9-174-0.9c-95.6,0-174,0.4-174,0.9c0,0.4,2.4,5.7,5.3,11.7l5.3,10.8h163.4h163.4
				L668.8,4341.8z M706.9,4265.5c4.5-9.2,8.2-17,8.2-17.6s-96.8-0.9-215.1-0.9s-215.1,0.4-215.1,0.9c0,0.5,3.7,8.4,8.2,17.6
				l8.2,16.6h198.6h198.6L706.9,4265.5z"/>
		</g>
	</g>
</g>
<g id="Слой_3" class="st0">
	<path class="st3" d="M95.8,30.1c1.1,0,2,0.9,2,2v2c0,3.2-3.7,3.9-6.4,3.9l-4.3-8h8.7V30.1z M90,44.1c2.5,4.7,3.8,9,3.8,14.6
		c0,5.5-1.6,10.1-4,15.8v7.3c0,2.2-1.8,4-4,4h-6c-2.2,0-4-1.8-4-4v-4H24.1v4c0,2.2-1.8,4-4,4h-6c-2.2,0-4-1.8-4-4v-7.3
		c-2.4-5.8-4-10.4-4-15.8c0-5.6,1.2-9.9,3.8-14.6c3.3-6.1,7.4-13.7,11.7-20.9c3.3-5.5,5-6.8,9.1-7.5c6.1-1.1,11.6-1.5,19.3-1.5
		s13.2,0.4,19.3,1.5c4,0.7,5.8,2,9.1,7.5C82.7,30.3,86.7,37.9,90,44.1z M26.1,56c0-3.3-2.7-6-6-6s-6,2.7-6,6s2.7,6,6,6
		S26.1,59.3,26.1,56z M65.9,59.9c0-1.1-0.9-2-2-2H36.1c-1.1,0-2,0.9-2,2s0.9,2,2,2H64C65,61.9,65.9,61,65.9,59.9z M77.6,38
		c0,0-2.9-7.3-6.5-12.5c-0.8-1.2-2-2-3.5-2.3c-6-1.1-11.3-1.4-17.7-1.4s-11.7,0.3-17.7,1.4c-1.4,0.3-2.7,1.1-3.5,2.3
		C25.3,30.7,22.4,38,22.4,38c6.5,1.2,17.1,2,27.6,2S71.1,39.2,77.6,38z M85.8,56c0-3.3-2.7-6-6-6s-6,2.7-6,6s2.7,6,6,6
		S85.8,59.3,85.8,56z M13,30.1H4.2c-1.1,0-2,0.9-2,2v2c0,3.2,3.7,3.9,6.4,3.9L13,30.1z"/>
</g>
</svg>
