<svg xmlns="http://www.w3.org/2000/svg" viewBox="0 0 100 100"><defs><style>.cls-1 { fill: #df5656; fill-rule: evenodd; }</style></defs><path class="cls-1" d="M.8 33.2L7.1 38 1.2 49.3c-2.9 5.2 2.1 10.2 5.3 12 3.2 1.7 8.1 1.9 12.7 1.9l8.3-13.5 6.2 3.4L22.8 33l-22 .2zm.9 27.5l13.4 24.8c2.7 3.4 7.8 4.3 13 4.1h14.1V66.1L15.5 66c-4.2.2-9.6-.7-13.8-5.3zM86 15.1l-7.3 3.1-7-10.6c-3.1-5.1-10-3.1-13.1-1.2-3 1.9-5.6 6.1-7.8 10.2l7.8 13.8-6 3.8 22.8.3L86 15.1zM61.5 2.5l-28.1-.3c-4.4.7-7.5 4.8-10 9.4L16.6 24l20.5 11.4L50.2 12c1.8-3.7 5.2-8.1 11.3-9.5zM62.7 98l.8-7.9 12.7-1c6-.3 7.6-7.2 7.4-10.9-.2-3.6-2.6-7.9-5.1-11.7l-15.8.2-.4-7.1-11.4 19.9L62.7 98zm22.9-15.3l13.9-24.5c1.5-4.1-.5-8.8-3.4-13.2l-7.5-12-19.9 12.4 14 22.8c2.5 3.4 4.6 8.5 2.9 14.5z"/></svg>