<?xml version="1.0" standalone="no"?>
<!DOCTYPE svg PUBLIC "-//W3C//DTD SVG 20010904//EN"
 "http://www.w3.org/TR/2001/REC-SVG-20010904/DTD/svg10.dtd">
<svg version="1.0" xmlns="http://www.w3.org/2000/svg"
 width="600.000000pt" height="600.000000pt" viewBox="0 0 600.000000 600.000000"
 preserveAspectRatio="xMidYMid meet">

<g transform="translate(0.000000,600.000000) scale(0.100000,-0.100000)"
fill="#000000" stroke="none">
<path d="M1321 5834 c-250 -67 -409 -327 -346 -567 48 -187 197 -324 386 -358
237 -42 481 127 532 369 10 45 17 59 41 71 132 72 254 178 295 259 22 43 29
122 11 122 -6 0 -99 -25 -207 -55 -182 -51 -198 -54 -207 -38 -21 38 -97 110
-151 142 -108 65 -240 86 -354 55z"/>
<path d="M988 4871 c-79 -26 -138 -62 -198 -123 -56 -57 -116 -169 -128 -238
-4 -25 -5 -440 -2 -923 l5 -879 28 -24 c26 -22 36 -24 135 -24 l107 0 129
-422 c71 -233 192 -623 268 -868 76 -245 175 -566 220 -715 84 -283 110 -341
173 -390 79 -59 193 -72 280 -31 95 44 165 151 165 251 0 29 -129 456 -540
1790 l-120 389 28 29 27 28 0 645 c0 354 0 644 0 644 0 0 88 -101 195 -225
161 -186 204 -229 247 -251 l51 -26 234 21 c128 12 241 21 250 21 12 0 47 -61
121 -212 110 -224 619 -1256 1101 -2233 157 -319 293 -588 301 -598 8 -9 26
-17 40 -17 28 0 1419 692 1453 723 27 26 28 47 1 81 -14 17 -30 26 -50 26 -18
0 -277 -124 -700 -336 -369 -184 -672 -334 -673 -332 -2 5 -173 352 -812 1647
-421 856 -624 1276 -615 1279 30 10 81 66 97 107 40 106 -21 223 -133 254 -24
7 -107 4 -270 -10 -228 -20 -236 -20 -253 -2 -117 125 -464 534 -565 666 -146
191 -203 240 -321 277 -84 25 -197 26 -276 1z"/>
<path d="M4746 3131 c-175 -83 -320 -152 -322 -154 -2 -2 54 -133 126 -290 71
-157 130 -295 130 -306 0 -52 -19 -72 -106 -113 -80 -37 -90 -39 -124 -29 -21
6 -42 17 -47 24 -6 6 -68 139 -138 295 -70 155 -130 282 -133 282 -8 0 -676
-311 -685 -319 -4 -4 21 -68 57 -142 35 -74 206 -440 381 -814 175 -374 319
-681 320 -683 3 -3 1624 753 1632 762 5 5 -98 228 -627 1360 -70 149 -130 271
-136 273 -5 2 -152 -64 -328 -146z"/>
<path d="M1084 1507 c-44 -40 -256 -233 -471 -430 -442 -404 -438 -399 -438
-527 0 -64 4 -83 29 -128 72 -128 226 -178 356 -114 25 12 117 88 205 169 89
82 256 235 373 342 116 107 209 197 207 202 -3 4 -43 130 -90 280 -47 150 -87
274 -88 276 -2 1 -39 -30 -83 -70z"/>
<path d="M3118 1081 c-213 -68 -352 -291 -318 -508 28 -174 149 -315 321 -373
54 -19 80 -21 161 -18 85 4 105 9 172 41 101 48 170 117 222 222 39 78 39 80
39 194 0 113 -1 118 -36 191 -62 129 -155 212 -280 251 -79 25 -203 24 -281 0z"/>
</g>
</svg>
